<svg xmlns="http://www.w3.org/2000/svg" xmlns:xlink="http://www.w3.org/1999/xlink" width="90" viewBox="0 0 90 30" height="30" version="1.0"><defs><clipPath id="a"><path d="M 37.238281 12 L 41 12 L 41 16 L 37.238281 16 Z M 37.238281 12"/></clipPath><clipPath id="b"><path d="M 46 8.703125 L 53.933594 8.703125 L 53.933594 15 L 46 15 Z M 46 8.703125"/></clipPath><clipPath id="c"><path d="M 41 19 L 45 19 L 45 23.21875 L 41 23.21875 Z M 41 19"/></clipPath><clipPath id="d"><path d="M 49 19 L 53 19 L 53 23.21875 L 49 23.21875 Z M 49 19"/></clipPath><clipPath id="e"><path d="M 39 15 L 53.933594 15 L 53.933594 23 L 39 23 Z M 39 15"/></clipPath><g id="f"><path d="M 7.640625 0 C 9.078125 -0.0546875 10.398438 -0.671875 11.363281 -1.6875 C 12.328125 -2.691406 12.894531 -4.050781 12.894531 -5.492188 C 12.894531 -6.929688 12.3125 -8.222656 11.308594 -9.132812 C 10.320312 -10.03125 8.960938 -10.546875 7.484375 -10.546875 L 5.34375 -10.546875 C 5.09375 -10.558594 4.789062 -10.742188 4.539062 -11.019531 C 4.238281 -11.363281 4.078125 -11.757812 4.078125 -12.222656 C 4.078125 -12.734375 4.277344 -13.25 4.554688 -13.527344 C 4.816406 -13.777344 5.121094 -13.910156 5.382812 -13.910156 L 10.269531 -13.910156 C 11.574219 -13.910156 12.328125 -14.53125 12.328125 -15.730469 C 12.328125 -16.828125 11.546875 -17.433594 10.269531 -17.433594 L 5.925781 -17.433594 C 4.460938 -17.433594 3.128906 -16.867188 2.136719 -15.875 C 1.09375 -14.835938 0.566406 -13.539062 0.566406 -11.996094 C 0.566406 -10.558594 1.148438 -9.332031 2.136719 -8.433594 C 3.101562 -7.550781 4.460938 -7.0625 5.925781 -7.0625 L 7.984375 -7.0625 C 8.261719 -7.0625 8.617188 -6.902344 8.882812 -6.597656 C 9.210938 -6.214844 9.382812 -5.78125 9.382812 -5.292969 C 9.382812 -4.777344 9.226562 -4.34375 8.910156 -3.984375 C 8.644531 -3.683594 8.300781 -3.496094 8.023438 -3.484375 L 3.140625 -3.484375 C 1.835938 -3.484375 1.109375 -2.957031 1.109375 -1.859375 C 1.109375 -0.738281 1.875 0 3.140625 0 Z M 7.640625 0"/></g><g id="g"><path d="M 7.613281 0.160156 C 9.210938 0.160156 10.625 -0.371094 11.71875 -1.425781 C 12.128906 -1.835938 12.351562 -2.390625 12.351562 -2.929688 C 12.351562 -3.367188 12.195312 -3.75 11.863281 -4.089844 C 11.585938 -4.394531 11.152344 -4.566406 10.769531 -4.566406 C 10.308594 -4.566406 9.859375 -4.367188 9.4375 -3.972656 C 8.988281 -3.5625 8.378906 -3.351562 7.613281 -3.351562 C 6.824219 -3.351562 6.125 -3.65625 5.597656 -4.195312 C 5.066406 -4.726562 4.777344 -5.464844 4.777344 -6.253906 L 4.777344 -9.675781 L 8.828125 -9.675781 C 9.304688 -9.675781 9.753906 -9.859375 10.082031 -10.175781 C 10.425781 -10.503906 10.597656 -10.902344 10.597656 -11.363281 C 10.597656 -11.839844 10.398438 -12.289062 10.082031 -12.617188 C 9.753906 -12.933594 9.304688 -13.132812 8.828125 -13.132812 L 4.777344 -13.132812 L 4.777344 -14.820312 C 4.777344 -15.296875 4.554688 -15.757812 4.222656 -16.089844 C 3.894531 -16.40625 3.417969 -16.601562 2.941406 -16.601562 C 2.46875 -16.601562 2.019531 -16.40625 1.703125 -16.089844 C 1.371094 -15.757812 1.175781 -15.296875 1.175781 -14.820312 L 1.175781 -6.28125 C 1.175781 -4.539062 1.886719 -2.902344 3.0625 -1.730469 C 4.238281 -0.554688 5.871094 0.160156 7.613281 0.160156 Z M 7.613281 0.160156"/></g><g id="h"><path d="M 2.96875 0 C 3.445312 0 3.855469 -0.171875 4.183594 -0.5 C 4.5 -0.804688 4.683594 -1.242188 4.683594 -1.730469 L 4.683594 -6.019531 C 4.699219 -6.875 5.054688 -7.679688 5.648438 -8.273438 C 6.230469 -8.867188 7.007812 -9.226562 7.867188 -9.238281 L 7.945312 -9.238281 C 8.433594 -9.238281 8.910156 -9.421875 9.238281 -9.738281 C 9.59375 -10.097656 9.765625 -10.503906 9.765625 -10.992188 C 9.765625 -12.035156 9.09375 -12.734375 7.945312 -12.734375 L 7.839844 -12.734375 C 6.058594 -12.695312 4.421875 -11.984375 3.207031 -10.78125 C 1.980469 -9.570312 1.226562 -7.917969 1.175781 -6.164062 L 1.175781 -1.730469 C 1.175781 -1.253906 1.386719 -0.816406 1.714844 -0.5 C 2.03125 -0.183594 2.496094 0 2.96875 0 Z M 2.96875 0"/></g><g id="j"><path d="M 6.296875 0 C 6.769531 0 7.230469 -0.183594 7.535156 -0.488281 C 7.851562 -0.804688 8.023438 -1.242188 8.023438 -1.714844 C 8.023438 -2.191406 7.851562 -2.625 7.535156 -2.941406 C 7.230469 -3.261719 6.785156 -3.445312 6.296875 -3.445312 C 5.648438 -3.445312 5.304688 -3.695312 5.265625 -4.195312 L 5.265625 -15.546875 C 5.265625 -16.023438 5.054688 -16.457031 4.726562 -16.789062 C 4.394531 -17.105469 3.917969 -17.300781 3.445312 -17.300781 C 2.984375 -17.300781 2.585938 -17.128906 2.257812 -16.789062 C 1.925781 -16.457031 1.753906 -16.035156 1.753906 -15.546875 L 1.753906 -4.277344 C 1.753906 -3.046875 2.257812 -1.964844 3.101562 -1.1875 C 3.945312 -0.433594 5.082031 0 6.296875 0 Z M 6.296875 0"/></g><g id="k"><path d="M 12.234375 4.078125 C 12.710938 4.078125 13.183594 3.878906 13.515625 3.5625 C 13.84375 3.234375 14.042969 2.796875 14.042969 2.324219 L 14.042969 -11.429688 C 14.042969 -11.90625 13.832031 -12.378906 13.515625 -12.695312 C 13.183594 -13.011719 12.734375 -13.210938 12.261719 -13.210938 C 11.773438 -13.210938 11.363281 -13.039062 11.019531 -12.695312 C 10.703125 -12.378906 10.503906 -11.90625 10.503906 -11.429688 L 10.503906 -6.652344 C 10.503906 -5.847656 10.175781 -5.09375 9.609375 -4.527344 C 9.039062 -3.960938 8.273438 -3.617188 7.496094 -3.617188 C 6.691406 -3.617188 5.9375 -3.960938 5.371094 -4.527344 C 4.804688 -5.09375 4.472656 -5.847656 4.472656 -6.652344 L 4.472656 -11.429688 C 4.472656 -11.90625 4.277344 -12.378906 3.960938 -12.695312 C 3.628906 -13.011719 3.167969 -13.210938 2.691406 -13.210938 C 2.203125 -13.210938 1.792969 -13.039062 1.453125 -12.695312 C 1.136719 -12.378906 0.9375 -11.90625 0.9375 -11.429688 L 0.9375 -6.652344 C 0.9375 -4.855469 1.648438 -3.21875 2.863281 -2.007812 C 4.078125 -0.792969 5.714844 -0.078125 7.496094 -0.078125 C 8.539062 -0.078125 9.542969 -0.410156 10.503906 -1.070312 L 10.503906 2.324219 C 10.503906 2.8125 10.675781 3.234375 11.007812 3.5625 C 11.324219 3.878906 11.757812 4.078125 12.234375 4.078125 Z M 12.234375 4.078125"/></g></defs><g clip-path="url(#a)"><path fill="#FFF" d="M 40.035156 14.816406 L 39.242188 12.6875 C 39.195312 12.5625 39.074219 12.472656 38.9375 12.472656 L 37.570312 12.472656 C 37.390625 12.472656 37.242188 12.621094 37.242188 12.804688 C 37.242188 12.992188 37.390625 13.140625 37.570312 13.140625 L 38.710938 13.140625 L 39.429688 15.0625 C 39.550781 14.910156 39.734375 14.816406 39.9375 14.816406 Z M 40.035156 14.816406"/></g><g clip-path="url(#b)"><path fill="#FFF" d="M 53.902344 14.894531 C 53.691406 12.175781 52.019531 9.800781 49.523438 8.734375 C 49.441406 8.703125 49.355469 8.703125 49.273438 8.734375 C 49.191406 8.769531 49.132812 8.835938 49.09375 8.917969 L 46.710938 14.816406 L 53.601562 14.816406 C 53.710938 14.816406 53.816406 14.84375 53.902344 14.894531 Z M 53.902344 14.894531"/></g><g clip-path="url(#c)"><path fill="#FFF" d="M 42.757812 19.722656 C 41.8125 19.722656 41.046875 20.503906 41.046875 21.46875 C 41.046875 22.433594 41.8125 23.21875 42.757812 23.21875 C 43.703125 23.21875 44.46875 22.433594 44.46875 21.46875 C 44.46875 20.503906 43.703125 19.722656 42.757812 19.722656 Z M 42.757812 19.722656"/></g><g clip-path="url(#d)"><path fill="#FFF" d="M 50.777344 19.722656 C 49.832031 19.722656 49.066406 20.503906 49.066406 21.46875 C 49.066406 22.433594 49.832031 23.21875 50.777344 23.21875 C 51.722656 23.21875 52.488281 22.433594 52.488281 21.46875 C 52.488281 20.503906 51.722656 19.722656 50.777344 19.722656 Z M 50.777344 19.722656"/></g><g clip-path="url(#e)"><path fill="#FFF" d="M 50.777344 19.386719 C 51.390625 19.386719 51.941406 19.664062 52.316406 20.105469 C 53.324219 18.84375 53.929688 17.234375 53.929688 15.488281 C 53.929688 15.304688 53.785156 15.152344 53.601562 15.152344 L 39.9375 15.152344 C 39.757812 15.152344 39.609375 15.304688 39.609375 15.488281 C 39.609375 17.234375 40.214844 18.84375 41.222656 20.105469 C 41.59375 19.664062 42.144531 19.386719 42.761719 19.386719 C 43.890625 19.386719 44.800781 20.320312 44.800781 21.46875 C 44.800781 21.820312 44.714844 22.15625 44.5625 22.445312 C 45.253906 22.675781 46 22.804688 46.769531 22.804688 C 47.539062 22.804688 48.285156 22.679688 48.976562 22.445312 C 48.824219 22.15625 48.738281 21.820312 48.738281 21.46875 C 48.738281 20.320312 49.65625 19.386719 50.777344 19.386719 Z M 50.777344 19.386719"/></g><g fill="#FFF"><use x="2.827" y="22.976" xmlns:xlink="http://www.w3.org/1999/xlink" xlink:href="#f" xlink:type="simple" xlink:actuate="onLoad" xlink:show="embed"/></g><g fill="#FFF"><use x="17.077" y="22.976" xmlns:xlink="http://www.w3.org/1999/xlink" xlink:href="#g" xlink:type="simple" xlink:actuate="onLoad" xlink:show="embed"/></g><g fill="#FFF"><use x="30.205" y="22.976" xmlns:xlink="http://www.w3.org/1999/xlink" xlink:href="#h" xlink:type="simple" xlink:actuate="onLoad" xlink:show="embed"/></g><g fill="#FFF"><use x="40.739" y="22.976" xmlns:xlink="http://www.w3.org/1999/xlink" xlink:href="#i" xlink:type="simple" xlink:actuate="onLoad" xlink:show="embed"/></g><g fill="#FFF"><use x="47.309" y="22.976" xmlns:xlink="http://www.w3.org/1999/xlink" xlink:href="#i" xlink:type="simple" xlink:actuate="onLoad" xlink:show="embed"/></g><g fill="#FFF"><use x="53.872" y="22.976" xmlns:xlink="http://www.w3.org/1999/xlink" xlink:href="#j" xlink:type="simple" xlink:actuate="onLoad" xlink:show="embed"/></g><g fill="#FFF"><use x="62.685" y="22.976" xmlns:xlink="http://www.w3.org/1999/xlink" xlink:href="#j" xlink:type="simple" xlink:actuate="onLoad" xlink:show="embed"/></g><g fill="#FFF"><use x="71.498" y="22.976" xmlns:xlink="http://www.w3.org/1999/xlink" xlink:href="#k" xlink:type="simple" xlink:actuate="onLoad" xlink:show="embed"/></g></svg>