<svg xmlns="http://www.w3.org/2000/svg" xmlns:xlink="http://www.w3.org/1999/xlink" width="90" viewBox="0 0 90 30" height="30" version="1.0"><defs><clipPath id="a"><path d="M 37.238281 12 L 41 12 L 41 15 L 37.238281 15 Z M 37.238281 12"/></clipPath><clipPath id="b"><path d="M 46 8.703125 L 53.878906 8.703125 L 53.878906 15 L 46 15 Z M 46 8.703125"/></clipPath><clipPath id="c"><path d="M 41 19 L 45 19 L 45 22.3125 L 41 22.3125 Z M 41 19"/></clipPath><clipPath id="d"><path d="M 49 19 L 53 19 L 53 22.3125 L 49 22.3125 Z M 49 19"/></clipPath><clipPath id="e"><path d="M 39 14 L 53.878906 14 L 53.878906 22 L 39 22 Z M 39 14"/></clipPath><g id="f"><path d="M 7.644531 0 C 9.082031 -0.0546875 10.402344 -0.671875 11.367188 -1.691406 C 12.328125 -2.691406 12.898438 -4.050781 12.898438 -5.492188 C 12.898438 -6.929688 12.316406 -8.222656 11.3125 -9.136719 C 10.324219 -10.03125 8.964844 -10.546875 7.484375 -10.546875 L 5.347656 -10.546875 C 5.09375 -10.5625 4.792969 -10.746094 4.542969 -11.023438 C 4.238281 -11.367188 4.078125 -11.761719 4.078125 -12.222656 C 4.078125 -12.738281 4.277344 -13.253906 4.554688 -13.53125 C 4.816406 -13.78125 5.121094 -13.914062 5.386719 -13.914062 L 10.269531 -13.914062 C 11.578125 -13.914062 12.328125 -14.535156 12.328125 -15.734375 C 12.328125 -16.832031 11.550781 -17.4375 10.269531 -17.4375 L 5.925781 -17.4375 C 4.460938 -17.4375 3.128906 -16.871094 2.136719 -15.878906 C 1.09375 -14.835938 0.566406 -13.542969 0.566406 -12 C 0.566406 -10.5625 1.148438 -9.332031 2.136719 -8.433594 C 3.101562 -7.550781 4.460938 -7.0625 5.925781 -7.0625 L 7.988281 -7.0625 C 8.261719 -7.0625 8.621094 -6.902344 8.882812 -6.601562 C 9.214844 -6.21875 9.386719 -5.78125 9.386719 -5.292969 C 9.386719 -4.777344 9.226562 -4.34375 8.910156 -3.988281 C 8.644531 -3.683594 8.304688 -3.5 8.027344 -3.484375 L 3.140625 -3.484375 C 1.835938 -3.484375 1.109375 -2.957031 1.109375 -1.859375 C 1.109375 -0.738281 1.875 0 3.140625 0 Z M 7.644531 0"/></g><g id="g"><path d="M 7.617188 0.160156 C 9.214844 0.160156 10.625 -0.371094 11.722656 -1.425781 C 12.132812 -1.835938 12.355469 -2.390625 12.355469 -2.929688 C 12.355469 -3.367188 12.199219 -3.75 11.867188 -4.09375 C 11.589844 -4.394531 11.15625 -4.566406 10.773438 -4.566406 C 10.308594 -4.566406 9.859375 -4.371094 9.4375 -3.972656 C 8.988281 -3.5625 8.382812 -3.351562 7.617188 -3.351562 C 6.824219 -3.351562 6.125 -3.65625 5.597656 -4.199219 C 5.070312 -4.726562 4.777344 -5.464844 4.777344 -6.257812 L 4.777344 -9.675781 L 8.832031 -9.675781 C 9.304688 -9.675781 9.753906 -9.859375 10.085938 -10.175781 C 10.429688 -10.507812 10.601562 -10.902344 10.601562 -11.367188 C 10.601562 -11.839844 10.402344 -12.289062 10.085938 -12.621094 C 9.753906 -12.9375 9.304688 -13.132812 8.832031 -13.132812 L 4.777344 -13.132812 L 4.777344 -14.824219 C 4.777344 -15.300781 4.554688 -15.761719 4.222656 -16.089844 C 3.894531 -16.410156 3.417969 -16.605469 2.945312 -16.605469 C 2.46875 -16.605469 2.019531 -16.410156 1.703125 -16.089844 C 1.371094 -15.761719 1.175781 -15.300781 1.175781 -14.824219 L 1.175781 -6.285156 C 1.175781 -4.542969 1.886719 -2.902344 3.0625 -1.730469 C 4.238281 -0.554688 5.875 0.160156 7.617188 0.160156 Z M 7.617188 0.160156"/></g><g id="h"><path d="M 2.96875 0 C 3.445312 0 3.855469 -0.171875 4.183594 -0.5 C 4.5 -0.804688 4.6875 -1.242188 4.6875 -1.730469 L 4.6875 -6.019531 C 4.699219 -6.878906 5.054688 -7.683594 5.648438 -8.277344 C 6.230469 -8.871094 7.007812 -9.226562 7.867188 -9.242188 L 7.945312 -9.242188 C 8.433594 -9.242188 8.910156 -9.425781 9.242188 -9.742188 C 9.597656 -10.097656 9.769531 -10.507812 9.769531 -10.996094 C 9.769531 -12.039062 9.09375 -12.738281 7.945312 -12.738281 L 7.839844 -12.738281 C 6.058594 -12.699219 4.421875 -11.984375 3.207031 -10.785156 C 1.980469 -9.570312 1.226562 -7.921875 1.175781 -6.164062 L 1.175781 -1.730469 C 1.175781 -1.253906 1.386719 -0.820312 1.714844 -0.5 C 2.03125 -0.183594 2.496094 0 2.96875 0 Z M 2.96875 0"/></g><g id="j"><path d="M 6.296875 0 C 6.773438 0 7.234375 -0.183594 7.539062 -0.488281 C 7.855469 -0.804688 8.027344 -1.242188 8.027344 -1.714844 C 8.027344 -2.191406 7.855469 -2.625 7.539062 -2.945312 C 7.234375 -3.261719 6.785156 -3.445312 6.296875 -3.445312 C 5.648438 -3.445312 5.308594 -3.695312 5.265625 -4.199219 L 5.265625 -15.550781 C 5.265625 -16.027344 5.054688 -16.460938 4.726562 -16.792969 C 4.394531 -17.109375 3.921875 -17.304688 3.445312 -17.304688 C 2.984375 -17.304688 2.585938 -17.132812 2.257812 -16.792969 C 1.925781 -16.460938 1.753906 -16.039062 1.753906 -15.550781 L 1.753906 -4.277344 C 1.753906 -3.050781 2.257812 -1.96875 3.101562 -1.1875 C 3.945312 -0.4375 5.082031 0 6.296875 0 Z M 6.296875 0"/></g><g id="k"><path d="M 12.238281 4.078125 C 12.710938 4.078125 13.1875 3.882812 13.515625 3.5625 C 13.847656 3.234375 14.046875 2.796875 14.046875 2.324219 L 14.046875 -11.433594 C 14.046875 -11.90625 13.835938 -12.382812 13.515625 -12.699219 C 13.1875 -13.015625 12.738281 -13.214844 12.261719 -13.214844 C 11.773438 -13.214844 11.367188 -13.042969 11.023438 -12.699219 C 10.707031 -12.382812 10.507812 -11.90625 10.507812 -11.433594 L 10.507812 -6.652344 C 10.507812 -5.847656 10.175781 -5.09375 9.609375 -4.527344 C 9.042969 -3.960938 8.277344 -3.617188 7.496094 -3.617188 C 6.691406 -3.617188 5.941406 -3.960938 5.371094 -4.527344 C 4.804688 -5.09375 4.476562 -5.847656 4.476562 -6.652344 L 4.476562 -11.433594 C 4.476562 -11.90625 4.277344 -12.382812 3.960938 -12.699219 C 3.628906 -13.015625 3.167969 -13.214844 2.691406 -13.214844 C 2.203125 -13.214844 1.796875 -13.042969 1.453125 -12.699219 C 1.136719 -12.382812 0.9375 -11.90625 0.9375 -11.433594 L 0.9375 -6.652344 C 0.9375 -4.859375 1.648438 -3.222656 2.863281 -2.007812 C 4.078125 -0.792969 5.714844 -0.078125 7.496094 -0.078125 C 8.539062 -0.078125 9.542969 -0.410156 10.507812 -1.070312 L 10.507812 2.324219 C 10.507812 2.8125 10.679688 3.234375 11.007812 3.5625 C 11.328125 3.882812 11.761719 4.078125 12.238281 4.078125 Z M 12.238281 4.078125"/></g></defs><g clip-path="url(#a)"><path d="M 40.03125 14.4375 L 39.242188 12.441406 C 39.191406 12.320312 39.070312 12.238281 38.933594 12.238281 L 37.574219 12.238281 C 37.394531 12.238281 37.246094 12.378906 37.246094 12.550781 C 37.246094 12.722656 37.394531 12.863281 37.574219 12.863281 L 38.710938 12.863281 L 39.425781 14.667969 C 39.546875 14.527344 39.730469 14.4375 39.933594 14.4375 Z M 40.03125 14.4375"/></g><g clip-path="url(#b)"><path d="M 53.84375 14.511719 C 53.628906 11.960938 51.964844 9.734375 49.480469 8.734375 C 49.398438 8.703125 49.3125 8.703125 49.230469 8.734375 C 49.148438 8.765625 49.089844 8.828125 49.050781 8.90625 L 46.675781 14.4375 L 53.542969 14.4375 C 53.652344 14.4375 53.753906 14.460938 53.84375 14.511719 Z M 53.84375 14.511719"/></g><g clip-path="url(#c)"><path d="M 42.742188 19.035156 C 41.800781 19.035156 41.035156 19.769531 41.035156 20.675781 C 41.035156 21.582031 41.800781 22.3125 42.742188 22.3125 C 43.683594 22.3125 44.445312 21.582031 44.445312 20.675781 C 44.445312 19.769531 43.683594 19.035156 42.742188 19.035156 Z M 42.742188 19.035156"/></g><g clip-path="url(#d)"><path d="M 50.726562 19.035156 C 49.785156 19.035156 49.023438 19.769531 49.023438 20.675781 C 49.023438 21.582031 49.785156 22.3125 50.726562 22.3125 C 51.671875 22.3125 52.433594 21.582031 52.433594 20.675781 C 52.433594 19.769531 51.671875 19.035156 50.726562 19.035156 Z M 50.726562 19.035156"/></g><g clip-path="url(#e)"><path d="M 50.726562 18.722656 C 51.339844 18.722656 51.886719 18.984375 52.261719 19.398438 C 53.265625 18.210938 53.871094 16.703125 53.871094 15.066406 C 53.871094 14.890625 53.722656 14.75 53.542969 14.75 L 39.933594 14.75 C 39.753906 14.75 39.605469 14.890625 39.605469 15.066406 C 39.605469 16.703125 40.210938 18.210938 41.210938 19.398438 C 41.582031 18.984375 42.132812 18.722656 42.746094 18.722656 C 43.867188 18.722656 44.777344 19.59375 44.777344 20.675781 C 44.777344 21.003906 44.691406 21.320312 44.539062 21.589844 C 45.230469 21.804688 45.96875 21.925781 46.738281 21.925781 C 47.503906 21.925781 48.246094 21.8125 48.9375 21.589844 C 48.785156 21.320312 48.699219 21.003906 48.699219 20.675781 C 48.699219 19.59375 49.613281 18.722656 50.726562 18.722656 Z M 50.726562 18.722656"/></g><g fill="#100F0D"><use x="2.954" y="22.057" xmlns:xlink="http://www.w3.org/1999/xlink" xlink:href="#f" xlink:type="simple" xlink:actuate="onLoad" xlink:show="embed"/></g><g fill="#100F0D"><use x="17.209" y="22.057" xmlns:xlink="http://www.w3.org/1999/xlink" xlink:href="#g" xlink:type="simple" xlink:actuate="onLoad" xlink:show="embed"/></g><g fill="#100F0D"><use x="30.342" y="22.057" xmlns:xlink="http://www.w3.org/1999/xlink" xlink:href="#h" xlink:type="simple" xlink:actuate="onLoad" xlink:show="embed"/></g><g fill="#100F0D"><use x="40.884" y="22.057" xmlns:xlink="http://www.w3.org/1999/xlink" xlink:href="#i" xlink:type="simple" xlink:actuate="onLoad" xlink:show="embed"/></g><g fill="#100F0D"><use x="47.456" y="22.057" xmlns:xlink="http://www.w3.org/1999/xlink" xlink:href="#i" xlink:type="simple" xlink:actuate="onLoad" xlink:show="embed"/></g><g fill="#100F0D"><use x="54.025" y="22.057" xmlns:xlink="http://www.w3.org/1999/xlink" xlink:href="#j" xlink:type="simple" xlink:actuate="onLoad" xlink:show="embed"/></g><g fill="#100F0D"><use x="62.841" y="22.057" xmlns:xlink="http://www.w3.org/1999/xlink" xlink:href="#j" xlink:type="simple" xlink:actuate="onLoad" xlink:show="embed"/></g><g fill="#100F0D"><use x="71.658" y="22.057" xmlns:xlink="http://www.w3.org/1999/xlink" xlink:href="#k" xlink:type="simple" xlink:actuate="onLoad" xlink:show="embed"/></g></svg>